<?xml version="1.0" encoding="utf-8"?>
<!-- Generator: Adobe Illustrator 24.0.1, SVG Export Plug-In . SVG Version: 6.00 Build 0)  -->
<svg version="1.1" id="Layer_1" xmlns="http://www.w3.org/2000/svg" xmlns:xlink="http://www.w3.org/1999/xlink" x="0px" y="0px"
	 viewBox="0 0 250 100" style="enable-background:new 0 0 250 100;" xml:space="preserve">
<style type="text/css">
	.st0{fill:#FFFFFF;}
</style>
<path class="st0" d="M89.5,27.1h8.7v37.3h-8.7v-3.9c-3.8,4.4-8.5,5-11.2,5c-11.5,0-18.1-9.6-18.1-19.8c0-12.1,8.3-19.6,18.2-19.6
	c2.7,0,7.5,0.7,11.1,5.3V27.1z M69.2,45.9c0,6.5,4.1,11.9,10.4,11.9c5.5,0,10.5-4,10.5-11.8c0-8.1-5-12-10.5-12
	C73.2,33.9,69.2,39.2,69.2,45.9z M108.5,27.1h8.7v3.4c1-1.2,2.4-2.4,3.6-3.1c1.7-1,3.4-1.2,5.3-1.2c2.1,0,4.4,0.4,6.8,1.8l-3.5,7.9
	c-1.9-1.2-3.5-1.3-4.4-1.3c-1.9,0-3.7,0.3-5.4,2c-2.4,2.6-2.4,6.1-2.4,8.6v19.3h-8.7V27.1z M138.6,27.1h8.7v3.5
	c2.9-3.5,6.4-4.4,9.2-4.4c3.9,0,7.5,1.9,9.7,5.5c3.1-4.4,7.8-5.5,11.1-5.5c4.5,0,8.5,2.1,10.6,5.8c0.7,1.2,1.9,4,1.9,9.4v23h-8.7
	V43.9c0-4.2-0.4-5.8-0.8-6.6c-0.5-1.4-1.9-3.3-5-3.3c-2.1,0-4,1.2-5.1,2.7c-1.5,2.1-1.7,5.3-1.7,8.5v19.2h-8.7V43.9
	c0-4.2-0.4-5.8-0.8-6.6c-0.5-1.4-1.9-3.3-5-3.3c-2.1,0-4,1.2-5.1,2.7c-1.5,2.1-1.7,5.3-1.7,8.5v19.2h-8.7V27.1z"/>
</svg>
