<?xml version="1.0" encoding="utf-8"?>
<!-- Generator: Adobe Illustrator 24.0.1, SVG Export Plug-In . SVG Version: 6.00 Build 0)  -->
<svg version="1.1" id="Layer_1" xmlns="http://www.w3.org/2000/svg" xmlns:xlink="http://www.w3.org/1999/xlink" x="0px" y="0px"
	 viewBox="0 0 250 100" style="enable-background:new 0 0 250 100;" xml:space="preserve">
<style type="text/css">
	.st0{fill:#FFFFFF;}
</style>
<g>
	<g>
		<path class="st0" d="M181.2,36.1l-3.9,19.1h3.4l3.9-19.1h7.2l-6.6,32.8c-0.4,2-2.4,3.6-4.4,3.6h-10.3c-2,0-3.3-1.6-2.9-3.6
			l1.3-6.6h7.1l-1.2,6.1c0,0,3.4,0,3.4,0s1.5-7.5,1.5-7.5h-6.8c-2,0-3.3-1.6-2.8-4l4.2-20.9H181.2z"/>
	</g>
	<g>
		<g>
			<g>
				<polygon class="st0" points="87.6,36.1 82.6,61 74.5,61 79.5,36.1 				"/>
			</g>
			<g>
				<polygon class="st0" points="80.8,29.7 79.7,34.9 87.8,34.9 88.9,29.7 				"/>
			</g>
		</g>
	</g>
	<g>
		<g>
			<g>
				<polygon class="st0" points="117,36.1 112,61 103.9,61 108.9,36.1 				"/>
			</g>
			<g>
				<polygon class="st0" points="110.2,29.7 109.2,34.9 117.2,34.9 118.3,29.7 				"/>
			</g>
		</g>
	</g>
	<g>
		<g>
			<polygon class="st0" points="125.3,44.1 123.3,53.8 115.2,53.8 117.2,44.1 			"/>
		</g>
	</g>
	<g>
		<path class="st0" d="M158.2,53.8h10.6l2.8-14c0.4-2-0.9-3.7-2.9-3.7h-10.3c-2,0-4,1.7-4.4,3.7l-3.5,17.5c-0.4,2,0.9,3.6,2.9,3.6
			h10.3c2,0,4-1.6,4.4-3.6l0.4-2.1l-10.5,0L158.2,53.8z M164.1,41.5l-1.3,6.6h-3.4l1.3-6.6H164.1z"/>
	</g>
	<g>
		<g>
			<polygon class="st0" points="134.8,54.4 137.8,61 149.8,61 142.1,44.1 156.1,29.7 144.1,29.7 138.6,35.3 139.8,29.7 129.9,29.7 
				123.6,61 133.5,61 			"/>
		</g>
	</g>
	<path class="st0" d="M52.4,60.9l6.3-31.2h16.8c2,0,3.3,1.6,2.9,3.6l-4.8,24c-0.4,2-2.4,3.7-4.4,3.7H52.4z M65.5,36.2l-3.8,19.1h4.3
		l3.9-19.1H65.5z"/>
	<path class="st0" d="M100.4,68.9c-0.4,2-2.4,3.6-4.4,3.6H85.7c-2,0-3.3-1.6-2.9-3.6l1.3-6.6h7.1L90,68.5c0,0,3.4,0,3.4,0
		s1.5-7.5,1.5-7.5H88c-2,0-3.3-1.6-2.9-3.6l3.5-17.5c0.4-2,2.4-3.6,4.4-3.6c0,0,14,0,14,0L100.4,68.9z M95.4,41.5l-2.8,13.8H96
		l2.8-13.8H95.4z"/>
	<g>
		<path class="st0" d="M196,37.6c0-1,0.7-1.7,1.6-1.7c0.9,0,1.6,0.7,1.6,1.7c0,1-0.7,1.7-1.6,1.7C196.7,39.3,196,38.5,196,37.6z
			 M197.6,39.6c1.1,0,2-0.9,2-2.1c0-1.2-0.9-2.1-2-2.1c-1.1,0-2,0.9-2,2.1C195.5,38.8,196.5,39.6,197.6,39.6z M197.2,37.7h0.4l0.6,1
			h0.4l-0.7-1.1c0.3,0,0.6-0.2,0.6-0.7c0-0.5-0.3-0.7-0.8-0.7h-0.9v2.4h0.4V37.7z M197.2,37.4v-0.7h0.5c0.2,0,0.5,0.1,0.5,0.4
			c0,0.4-0.3,0.4-0.6,0.4H197.2z"/>
	</g>
	<g>
		<path class="st0" d="M125,8.6c23.7,0,45.9,4.6,62.6,12.9c15.6,7.8,24.3,17.9,24.3,28.3c0,10.4-8.6,20.5-24.3,28.3
			C171,86.5,148.7,91,125,91c-23.7,0-45.9-4.6-62.6-12.9c-15.6-7.8-24.3-17.9-24.3-28.3c0-10.4,8.6-20.5,24.3-28.3
			C79.1,13.2,101.3,8.6,125,8.6 M125,4C74.6,4,33.7,24.5,33.7,49.8c0,25.3,40.9,45.8,91.4,45.8c50.5,0,91.4-20.5,91.4-45.8
			C216.4,24.5,175.5,4,125,4L125,4z"/>
	</g>
	<g>
		<path class="st0" d="M105.8,73l1.6-7.6h4.1l-0.3,1.5h-2.3l-0.3,1.4h2.2l-0.3,1.5h-2.2l-0.3,1.6h2.4L110,73H105.8z"/>
		<path class="st0" d="M110.8,73l1.6-7.6h1.8l-1.3,6.1h2.2l-0.3,1.5H110.8z"/>
		<path class="st0" d="M115.4,73l1.6-7.6h4.1l-0.3,1.5h-2.3l-0.3,1.4h2.2l-0.3,1.5h-2.2l-0.3,1.6h2.4l-0.3,1.5H115.4z"/>
		<path class="st0" d="M124.4,68.1l0.1-0.5c0.1-0.6,0-1-0.4-1c-0.6,0-0.8,0.3-0.9,0.8l-0.8,3.8c-0.1,0.4,0,0.7,0.5,0.7
			c0.6,0,0.8-0.6,0.9-1.1L124,70h1.8l-0.2,0.9c-0.3,1.3-1.2,2.2-3,2.2c-1.6,0-2.1-0.9-1.8-2.4l0.7-3.1c0.4-1.6,1.3-2.4,2.9-2.4
			c1.5,0,2.3,0.6,2,2.2l-0.1,0.6H124.4z"/>
		<path class="st0" d="M127.2,65.4h4.6l-0.3,1.5h-1.4l-1.3,6.1H127l1.3-6.1h-1.4L127.2,65.4z"/>
		<path class="st0" d="M132.7,73h-1.8l1.6-7.6h2.6c1.5,0,2.1,0.6,1.7,2.1c-0.2,0.8-0.5,1.4-1.3,1.7v0c0.5,0.1,0.7,0.5,0.7,1
			c-0.1,0.6-0.3,1.9-0.3,2.4c0,0.1,0.1,0.2,0.1,0.3l0,0.1H134c0-0.1,0-0.3,0-0.4c0.1-0.7,0.3-1.3,0.3-1.8c0-0.5,0-0.8-0.4-0.8h-0.6
			L132.7,73z M133.6,68.6h0.6c0.5,0,0.7-0.5,0.8-0.9c0.2-0.9-0.2-0.9-1-0.9L133.6,68.6z"/>
		<path class="st0" d="M141.7,70.6c-0.4,1.7-1.2,2.6-3,2.6c-1.8,0-2.2-0.9-1.9-2.6l0.7-3.1c0.3-1.5,1.3-2.3,2.9-2.3
			c1.6,0,2.2,0.8,1.9,2.3L141.7,70.6z M140.6,67.6c0.1-0.5,0.2-1-0.4-1c-0.6,0-0.8,0.6-0.9,1l-0.7,3.1c-0.1,0.4-0.2,1.1,0.4,1.1
			c0.6,0,0.7-0.6,0.8-1.1L140.6,67.6z"/>
		<path class="st0" d="M144.5,68.8L144.5,68.8l-0.8,4.2h-1.7l1.6-7.6h1.8l0.5,4.2h0l0.7-4.2h1.7l-1.6,7.6H145L144.5,68.8z"/>
		<path class="st0" d="M147.7,73l1.6-7.6h1.8l-1.6,7.6H147.7z"/>
		<path class="st0" d="M154.4,68.1l0.1-0.5c0.1-0.6,0-1-0.4-1c-0.6,0-0.8,0.3-0.9,0.8l-0.8,3.8c-0.1,0.4,0,0.7,0.5,0.7
			c0.6,0,0.8-0.6,0.9-1.1L154,70h1.8l-0.2,0.9c-0.3,1.3-1.2,2.2-3,2.2c-1.6,0-2.1-0.9-1.8-2.4l0.7-3.1c0.4-1.6,1.3-2.4,2.9-2.4
			c1.5,0,2.3,0.6,2,2.2l-0.1,0.6H154.4z"/>
		<path class="st0" d="M158,70.5l-0.1,0.5c-0.1,0.4,0,0.8,0.5,0.8c0.4,0,0.7-0.4,0.8-0.8c0.1-0.6-0.3-0.9-0.7-1.2
			c-0.5-0.3-0.9-0.6-1.1-1c-0.2-0.4-0.3-0.8-0.2-1.5c0.3-1.4,1.3-2.2,2.7-2.2c1.5,0,2.1,1,1.7,2.5h-1.6c0.1-0.4,0.2-1.1-0.4-1.1
			c-0.4,0-0.6,0.2-0.7,0.5c-0.2,0.5,0,0.7,0.3,0.9c0.6,0.4,1.1,0.7,1.4,1.1c0.3,0.4,0.5,0.9,0.3,1.8c-0.3,1.5-1.3,2.3-2.8,2.3
			c-1.6,0-2.1-0.9-1.9-1.9l0.2-0.8H158z"/>
	</g>
</g>
</svg>
