<?xml version="1.0" encoding="utf-8"?>
<!-- Generator: Adobe Illustrator 24.0.1, SVG Export Plug-In . SVG Version: 6.00 Build 0)  -->
<svg version="1.1" id="Layer_1" xmlns="http://www.w3.org/2000/svg" xmlns:xlink="http://www.w3.org/1999/xlink" x="0px" y="0px"
	 viewBox="0 0 250 100" style="enable-background:new 0 0 250 100;" xml:space="preserve">
<style type="text/css">
	.st0{fill:#FFFFFF;}
</style>
<g id="g40_1_">
	<g id="g46_1_" transform="translate(136.4103,59.3614)">
		<path id="path48_1_" class="st0" d="M-38.4-0.2l-1.3-16.7h-0.1l-5.1,13.3c-0.5,1.2-1.5,2.3-3,2.3c-1.5,0-2.6-1.2-3-2.3l-5-13.1
			H-56l-1.4,16.5l-4.9,0l2.5-23.5c0.2-1.3,1.2-2.8,2.7-2.8c2.2,0,3.1,1.3,3.5,2.6l5.7,14.3h0.1l5.7-14.3c0.5-1.3,1.4-2.6,3.6-2.6
			c1.4,0,2.5,1.5,2.7,3.1l2.5,23.2L-38.4-0.2z"/>
	</g>
	<path id="path50_1_" class="st0" d="M105.5,39.3h4.6v19.9h-4.6V39.3z"/>
	<path id="path52_1_" class="st0" d="M213.7,39.3h4.6v19.9h-4.6V39.3z"/>
	<g id="g54_1_" transform="translate(152.631,73.7207)">
		<path id="path56_1_" class="st0" d="M-40-27.5c0-5.8,2.2-7.2,6-7.2h4.9c5.9,0,6.7-0.4,6.6,5.2l-10.7,0c-2.2,0-2.5,1.4-2.5,3.9v2.1
			c0,2.9,0.4,4,2.4,4l11,0c0,3.3,0,5.1-4.2,5.1H-34c-3.7,0-6-1.4-6-7.2V-27.5z"/>
	</g>
	<g id="g58_1_" transform="translate(194.3738,73.507)">
		<path id="path60_1_" class="st0" d="M-44.2-27v-1.3c0-3.6-0.9-5.9-4.1-5.9h-13.3v19.9h4.2v-5.2h7.3c1.3,0,1.7,0.7,1.7,2.8v2.4h4.2
			v-3.4c0-3.3-1-4.1-2.3-4.4v-0.1C-44.6-22.8-44.2-24.4-44.2-27 M-48.3-26.5c0,1.4-0.4,2.1-1.5,2.1h-7.6v-4.8h7.2
			c1.3,0,1.9,0.3,1.9,2.1V-26.5z"/>
	</g>
	<g id="g62_1_" transform="translate(197.1631,73.7207)">
		<path id="path64_1_" class="st0" d="M-44.5-27.5c0-5.8,2.2-7.2,6-7.2h6.7c3.7,0,6,1.4,6,7.2v5.9c0,5.8-2.2,7.2-6,7.2h-6.7
			c-3.7,0-6-1.4-6-7.2V-27.5 M-40.2-23.4c0,2.9,0.4,4,2.4,4h5.3c2,0,2.4-1.1,2.4-4v-2.1c0-2.5-0.4-4-2.6-4h-4.9
			c-2.2,0-2.6,1.5-2.6,4V-23.4z"/>
	</g>
	<g id="g66_1_" transform="translate(242.7647,81.4795)">
		<path id="path68_1_" class="st0" d="M-49.1-42.2h4.2v7.1h8.8v-7.1h4.2v19.9h-4.2v-7.5H-45v7.5h-4.2V-42.2z"/>
	</g>
	<g id="g70_1_" transform="translate(287.4161,81.4795)">
		<path id="path72_1_" class="st0" d="M-53.6-42.2h-12.8v19.9h4.2v-5h9.8c2.9,0,3.8-3.4,3.8-6.4v-1.7
			C-48.7-39.3-49.7-42.2-53.6-42.2 M-53-34.4c0,1.2-0.4,2.1-1.3,2.1h-8v-5h7.6c1.3,0,1.7,0.8,1.7,2.1V-34.4z"/>
	</g>
	<g id="g74_1_" transform="translate(220.3734,73.687)">
		<path id="path76_1_" class="st0" d="M-46.9-27.4c0-5.8,2.2-7.2,6-7.2h4.9c5.9,0,6.7-0.4,6.6,5.2l-10.7,0c-2.2,0-2.5,1.4-2.5,3.9
			v2.1c0,2.9,0.4,4,2.4,4l11,0c0,3.3,0,5.1-4.2,5.1h-7.5c-3.7,0-6-1.4-6-7.2V-27.4z"/>
	</g>
	<path class="st0" d="M50.6,26.2c-3.6-1.7-6.8-2.5-11.1-2.6c-15.3-0.3-27.8,11.3-28.1,25.8c0,2.5,0.3,4.9,0.9,7.3l7.9-11.1l5.3,8.4
		c0,0,1.6,1.8,0.4,3.7c-0.1,0.1-7.2,10-7.2,10c5,5.2,11.9,8.4,19.9,8.5c7.7,0.1,14.6-2.7,19.7-7.4L41.5,42.2c0,0,2.6-3.7,4.7-6.7
		c2.3-3.2,4.3-1,5,0.1C56.1,43.4,65.4,58,65.4,58l0-0.1c0.9-2.2,1.4-2.8,1.5-6L50.6,26.2z M46.6,57.9c0,0-4.5,6.5-4.9,7.1
		c-2.7,3.7-4.7-0.6-4.7-0.6L22.7,42.1c0,0,2.6-3.7,4.7-6.7c2.3-3.2,4.3-1,5,0.1C37.4,43.3,46.6,57.9,46.6,57.9z"/>
	<g id="g86_1_" transform="translate(88.455,94.4735)">
		<path id="path88_1_" class="st0" d="M-33.5-66.9c0-1.2,1-2.1,2.2-2.1c1.2,0,2.1,0.9,2.1,2.1c0,1.2-1,2.1-2.1,2.1
			C-32.5-64.7-33.5-65.6-33.5-66.9 M-31.4-65.1c1,0,1.7-0.8,1.7-1.8c0-1-0.8-1.8-1.7-1.8c-1,0-1.7,0.8-1.7,1.8
			C-33.1-65.8-32.3-65.1-31.4-65.1 M-31.8-65.6h-0.4v-2.5h0.9c0.6,0,0.9,0.2,0.9,0.7c0,0.4-0.3,0.6-0.6,0.7l0.7,1.1h-0.4l-0.6-1.1
			h-0.4V-65.6 M-31.4-67c0.3,0,0.6,0,0.6-0.4c0-0.3-0.3-0.4-0.5-0.4h-0.5v0.8H-31.4z"/>
	</g>
</g>
</svg>
