<?xml version="1.0" encoding="utf-8"?>
<!-- Generator: Adobe Illustrator 24.0.1, SVG Export Plug-In . SVG Version: 6.00 Build 0)  -->
<svg version="1.1" id="Layer_1" xmlns="http://www.w3.org/2000/svg" xmlns:xlink="http://www.w3.org/1999/xlink" x="0px" y="0px"
	 viewBox="0 0 250 100" style="enable-background:new 0 0 250 100;" xml:space="preserve">
<style type="text/css">
	.st0{fill:#FFFFFF;}
</style>
<g>
	<g>
		<g>
			<g id="Page-1_9_">
				<path id="Fill-17_9_" class="st0" d="M4.9,30.4v-4.5h4.5c0,0-0.6-1.4-0.6-1.9H3v5.8C3.5,29.8,4.9,30.4,4.9,30.4z M54.9,29.8
					c-0.6,0-2.1,0.6-2.1,0.6v-4.5h-4.5c0,0,0.8-1.4,0.8-1.9h3.7h2.1V29.8z M4.9,69.6v4.5h4.5c0,0-0.6,1.4-0.6,1.9H3v-5.8
					C3.5,70.2,4.9,69.6,4.9,69.6z M53,69.6v4.5h-4.5c0,0,0.6,1.4,0.6,1.9h5.8v-5.8C54.4,70.2,53,69.6,53,69.6z"/>
				<path id="Fill-1-copy-2_9_" class="st0" d="M7.1,37.3c-0.3-0.3-0.4-8.8,0-9.1s8.9-0.4,9.2,0c0.3,0.4,0.3,8.9,0,9.1
					C16,37.6,7.4,37.6,7.1,37.3z M18.6,37.3c-0.3-0.3-0.4-8.8,0-9.1c0.4-0.4,8.9-0.4,9.2,0s0.3,8.9,0,9.1S18.9,37.6,18.6,37.3z
					 M30.2,37.3c-0.3-0.3-0.4-8.8,0-9.1s8.9-0.4,9.2,0c0.3,0.4,0.3,8.9,0,9.1C39.1,37.6,30.5,37.6,30.2,37.3z M41.7,37.3
					c-0.3-0.3-0.4-8.8,0-9.1c0.4-0.4,8.9-0.4,9.2,0c0.3,0.4,0.3,8.9,0,9.1C50.6,37.6,42,37.6,41.7,37.3z M7.1,48.8
					c-0.3-0.3-0.4-8.8,0-9.1c0.4-0.4,8.9-0.4,9.2,0c0.3,0.4,0.3,8.9,0,9.1C16,49.1,7.4,49.1,7.1,48.8z M18.6,48.8
					c-0.3-0.3-0.4-8.8,0-9.1c0.4-0.4,8.9-0.4,9.2,0c0.3,0.4,0.3,8.9,0,9.1S18.9,49.1,18.6,48.8z M30.2,48.8c-0.3-0.3-0.4-8.8,0-9.1
					c0.4-0.4,8.9-0.4,9.2,0c0.3,0.4,0.3,8.9,0,9.1C39.1,49.1,30.5,49.1,30.2,48.8z M41.7,48.8c-0.3-0.3-0.4-8.8,0-9.1
					c0.4-0.4,8.9-0.4,9.2,0c0.3,0.4,0.3,8.9,0,9.1C50.6,49.1,42,49.1,41.7,48.8z M7.1,60.4c-0.3-0.3-0.4-8.8,0-9.1
					c0.4-0.4,8.9-0.4,9.2,0c0.3,0.4,0.3,8.9,0,9.1C16,60.7,7.4,60.7,7.1,60.4z M18.6,60.4c-0.3-0.3-0.4-8.8,0-9.1
					c0.4-0.4,8.9-0.4,9.2,0c0.3,0.4,0.3,8.9,0,9.1C27.5,60.7,18.9,60.7,18.6,60.4z M30.2,60.4c-0.3-0.3-0.4-8.8,0-9.1
					c0.4-0.4,8.9-0.4,9.2,0c0.3,0.4,0.3,8.9,0,9.1C39.1,60.7,30.5,60.7,30.2,60.4z M41.7,60.4c-0.3-0.3-0.4-8.8,0-9.1
					c0.4-0.4,8.9-0.4,9.2,0c0.3,0.4,0.3,8.9,0,9.1C50.6,60.7,42,60.7,41.7,60.4z M7.1,71.9c-0.3-0.3-0.4-8.8,0-9.1
					c0.4-0.4,8.9-0.4,9.2,0c0.3,0.4,0.3,8.9,0,9.1C16,72.2,7.4,72.2,7.1,71.9z M18.6,71.9c-0.3-0.3-0.4-8.8,0-9.1
					c0.4-0.4,8.9-0.4,9.2,0c0.3,0.4,0.3,8.9,0,9.1C27.5,72.2,18.9,72.2,18.6,71.9z M30.2,71.9c-0.3-0.3-0.4-8.8,0-9.1
					c0.4-0.4,8.9-0.4,9.2,0c0.3,0.4,0.3,8.9,0,9.1C39.1,72.2,30.5,72.2,30.2,71.9z M41.7,71.9c-0.3-0.3-0.4-8.8,0-9.1
					c0.4-0.4,8.9-0.4,9.2,0c0.3,0.4,0.3,8.9,0,9.1C50.6,72.2,42,72.2,41.7,71.9z"/>
			</g>
		</g>
		<g>
			<path class="st0" d="M75.8,52.4c0,1.2,0.6,3.4,4.5,3.4c2.1,0,4.4-0.5,4.4-2.7c0-1.7-1.6-2.1-3.8-2.6l-2.3-0.5
				c-3.4-0.8-6.7-1.6-6.7-6.2c0-2.4,1.3-6.5,8.1-6.5c6.5,0,8.2,4.2,8.2,6.8H84c-0.1-0.9-0.5-3.2-4.3-3.2c-1.7,0-3.7,0.6-3.7,2.5
				c0,1.7,1.4,2,2.2,2.2l5.2,1.3c2.9,0.7,5.5,1.9,5.5,5.7c0,6.4-6.5,6.9-8.3,6.9c-7.7,0-9-4.4-9-7.1H75.8z"/>
			<path class="st0" d="M106.1,58.9h-3.9v-2.2h-0.1c-0.9,1.7-2.6,2.6-4.8,2.6c-3.1,0-5.3-1.8-5.3-5.8V43.2h4.1v9.7
				c0,2.4,1.4,2.9,2.7,2.9c1.4,0,3.2-0.8,3.2-3.6v-9h4.1V58.9z"/>
			<path class="st0" d="M113.8,45.5L113.8,45.5c0.8-1.2,2-2.7,4.7-2.7c3.4,0,6.5,2.7,6.5,8.1c0,4.3-1.9,8.4-6.6,8.4
				c-2.9,0-3.9-1.6-4.4-2.4H114V65h-4.1V43.2h3.9V45.5z M117.5,55.9c2.7,0,3.4-2.9,3.4-4.7c0-2.5-0.9-4.8-3.5-4.8
				c-2.8,0-3.5,2.5-3.5,5C113.8,53.7,114.8,55.9,117.5,55.9z"/>
			<path class="st0" d="M131.8,45.5L131.8,45.5c0.8-1.2,2-2.7,4.7-2.7c3.4,0,6.5,2.7,6.5,8.1c0,4.3-1.9,8.4-6.6,8.4
				c-2.9,0-3.9-1.6-4.4-2.4H132V65h-4.1V43.2h3.9V45.5z M135.5,55.9c2.7,0,3.4-2.9,3.4-4.7c0-2.5-0.9-4.8-3.5-4.8
				c-2.8,0-3.5,2.5-3.5,5C131.8,53.7,132.8,55.9,135.5,55.9z"/>
			<path class="st0" d="M150.2,58.9h-4.1V37.7h4.1V58.9z"/>
			<path class="st0" d="M162.3,58.6c-1.9,5.8-2.5,6.6-6.1,6.6c-0.6,0-1.3,0-1.9-0.1v-3.3c0.2,0,0.4,0.1,0.8,0.1
				c1.5,0,2.3-0.2,2.7-2.4l-5.8-16.3h4.6l3.4,11.5h0.1l3.2-11.5h4.4L162.3,58.6z"/>
			<path class="st0" d="M174.9,58.9h-4.1V46.1h-2.3v-2.9h2.3v-1.3c0-3.2,1.8-4.5,4.6-4.5c1.2,0,1.8,0,2.1,0.1v3.3h-1.1
				c-1.4,0-1.4,0.4-1.4,1.7v0.6h2.7v2.9h-2.7V58.9z"/>
			<path class="st0" d="M179.9,43.2h3.9v2.7h0.1c0.9-1.6,1.8-3.1,4.3-3.1c0.3,0,0.5,0,0.8,0.1V47c-0.4-0.1-0.8-0.1-1.2-0.1
				c-3.2,0-3.8,2-3.8,3.7v8.2h-4.1V43.2z"/>
			<path class="st0" d="M203.5,55.8c0,1.9,0.4,2.3,0.9,2.4v0.6H200c-0.2-0.7-0.3-1-0.4-1.9c-0.9,1-2.3,2.3-5.1,2.3
				c-2.4,0-4.8-1.3-4.8-4.6c0-3.1,1.9-4.6,4.6-5l3.7-0.6c0.6-0.1,1.4-0.4,1.4-1.2c0-1.7-1.6-1.8-2.7-1.8c-2.1,0-2.4,1.3-2.5,2.2h-4
				c0.5-4.8,3.8-5.5,7-5.5c2.2,0,6.2,0.7,6.2,4.5V55.8z M199.5,51.2c-0.4,0.3-1.1,0.6-2.8,0.9c-1.5,0.3-2.8,0.6-2.8,2.4
				c0,1.4,1.1,1.9,1.9,1.9c1.8,0,3.7-1.2,3.7-3.1V51.2z"/>
			<path class="st0" d="M229.6,58.9h-4.1v-9.5c0-2.3-1-3.1-2.2-3.1c-2.1,0-2.8,1.4-2.8,3.2v9.4h-4.1v-9.4c0-1.3,0-3.2-2.5-3.2
				c-1.9,0-2.6,1.4-2.6,3.1v9.5h-4.1V43.2h3.9v2.3h0.1c0.5-1,1.7-2.7,4.4-2.7c2.3,0,3.3,0.8,4.4,2.5c0.5-0.8,1.7-2.5,4.2-2.5
				c3.1,0,5.5,1.8,5.5,5.2V58.9z"/>
			<path class="st0" d="M246.8,54.3c-1.1,3.8-4.2,5-6.9,5c-4.4,0-7.8-2.1-7.8-8.6c0-1.9,0.6-7.9,7.5-7.9c3.1,0,7.4,1.5,7.4,8.6v0.7
				h-10.8c0.1,1.2,0.4,3.8,3.7,3.8c1.1,0,2.3-0.6,2.7-1.7H246.8z M242.8,49.5c-0.2-2.5-1.9-3.3-3.2-3.3c-1.9,0-3,1.2-3.2,3.3H242.8z
				"/>
		</g>
	</g>
</g>
</svg>
