<?xml version="1.0" encoding="utf-8"?>
<!-- Generator: Adobe Illustrator 24.0.1, SVG Export Plug-In . SVG Version: 6.00 Build 0)  -->
<svg version="1.1" id="Layer_1" xmlns="http://www.w3.org/2000/svg" xmlns:xlink="http://www.w3.org/1999/xlink" x="0px" y="0px"
	 viewBox="0 0 250 100" style="enable-background:new 0 0 250 100;" xml:space="preserve">
<style type="text/css">
	.st0{fill:#FFFFFF;}
</style>
<g>
	<path class="st0" d="M140.9,51.7c0.5-1.9,1-3.8,1.5-5.7c0.4-1.5,0.8-3,1.2-4.5c0.1-0.6,0.4-0.8,1-0.8c6.6,0,13.1,0,19.7,0
		c0.9,0,0.9,0.5,0.9,1.2c0,6.3,0,12.7,0,19c0,2.2,0,4.4,0,6.6c0,0.8-0.3,1.1-1.1,1.1c-3,0-6,0-9,0c-1.4,0-1.4,0-1.4-1.3
		c0-7.7,0-15.3,0-23c0-0.4,0-0.8,0-1.2c-0.1,0-0.2,0-0.2,0c-0.7,2.3-1.4,4.6-2.1,6.9c-1.8,5.9-3.5,11.7-5.3,17.6
		c-0.2,0.8-0.6,1-1.4,1c-2.4-0.1-4.7-0.1-7.1,0c-0.8,0-1.2-0.3-1.4-1c-1-3.4-2-6.7-3.1-10.1c0-0.1-0.1-0.2-0.2-0.6
		c-0.2,0.5-0.4,0.8-0.5,1.1c-1.1,3.2-2.1,6.5-3.1,9.8c-0.2,0.7-0.5,0.9-1.2,0.9c-2.4,0-4.7-0.1-7.1,0c-0.9,0-1.4-0.3-1.6-1.2
		c-2.3-7.7-4.6-15.3-6.9-23c-0.1-0.4-0.3-0.7-0.6-1.1c0,1.1,0,2.2,0,3.3c0,3,0,3-3,3c-0.9,0-1.8,0-2.7,0c-0.5,0-0.7,0.2-0.7,0.7
		c0,2.2,0,4.4,0,6.6c0,1.4,1,2.4,2.5,2.4c1,0,2-0.3,3-0.5c0.6-0.1,0.8,0,0.8,0.6c0,2.4,0,4.8,0,7.1c0,0.3-0.4,0.8-0.7,0.9
		c-2.6,1.1-5.4,1.4-8.2,1.2c-1-0.1-2-0.3-3-0.6c-3.5-1.1-5.5-4.1-5.6-8.3c0-3.3,0-6.6,0-10.2c-0.8,0-1.6,0-2.3,0
		c-0.6,0-0.9-0.2-0.9-0.9c0-2.3,0-4.7,0-7c0-0.6,0.3-0.8,0.9-0.8c0.7,0,1.5,0,2.4,0c0-1.6,0-3.2,0-4.8c0-0.8,0.2-1.2,1-1.5
		c3.1-0.9,6.1-1.9,9.1-2.9c1.1-0.3,1.3-0.2,1.3,0.9c0,2.3,0,4.7,0,7c0,0.8,0.2,1,1,1c4.8,0,9.5,0,14.3,0c1,0,1.4,0.3,1.6,1.3
		c0.6,2.9,1.4,5.7,2,8.6c0.1,0.4,0.2,0.7,0.3,1.1c0.1,0,0.2,0,0.3,0c0.1-0.3,0.2-0.7,0.3-1c0.9-3,1.8-6,2.7-8.9c0.2-0.8,0.6-1,1.4-1
		c2.2,0,4.4,0.1,6.6,0c0.9,0,1.3,0.3,1.6,1.2c0.9,3.1,1.9,6.2,2.8,9.2c0.1,0.2,0.1,0.4,0.2,0.5C140.7,51.7,140.8,51.7,140.9,51.7z"
		/>
	<path class="st0" d="M53.3,80.1c-16.7,0-30.5-13.6-30.2-30.7C23.4,33,36.8,19.5,54,19.8c16.4,0.3,29.9,13.7,29.6,30.8
		C83.2,67,69.9,80.1,53.3,80.1z M53.3,72.2c12.4,0,22.2-9.9,22.3-22.2c0-12.3-10.1-22.4-22.7-22.3C41,27.9,31.1,37.8,31.1,50
		C31.1,62.3,41,72.2,53.3,72.2z"/>
	<path class="st0" d="M208.4,68.7c-4.5-0.1-8.7-1.7-11.8-5.5c-4.9-5.9-4.1-14.5,1.9-19.4c6.2-5.2,16.1-4.8,21.6,0.9
		c7.1,7.2,4.5,19-5.1,22.8C213,68.3,210.9,68.6,208.4,68.7z M213.4,54.6c0-2.8-1.8-4.9-4.3-4.9c-2.7,0-4.7,2-4.7,4.8
		c0,2.7,2,5,4.5,5C211.4,59.5,213.4,57.4,213.4,54.6z"/>
	<path class="st0" d="M167.4,50c0-5.7,0-11.3,0-17c0-1,0.2-1.3,1.2-1.3c3,0.1,6,0,9.1,0c0.8,0,1.1,0.2,1.1,1.1c0,11.5,0,23,0,34.5
		c0,0.9-0.3,1.2-1.2,1.2c-3,0-5.9,0-8.9,0c-1.3,0-1.3,0-1.3-1.3C167.4,61.4,167.4,55.7,167.4,50z"/>
	<path class="st0" d="M180.9,54.4c0-4.2,0-8.3,0-12.5c0-0.9,0.3-1.2,1.2-1.2c3,0,6.1,0,9.1,0c0.9,0,1.2,0.3,1.2,1.2
		c0,8.4,0,16.8,0,25.2c0,0.9-0.3,1.2-1.2,1.2c-3.1,0-6.1,0-9.2,0c-0.8,0-1.1-0.3-1.1-1.1C180.9,62.9,180.9,58.7,180.9,54.4z"/>
	<path class="st0" d="M186.7,31.7c1.6,0,3.3,0,4.9,0c0.7,0,1,0.2,0.9,0.9c0,1.8,0,3.6,0,5.4c0,0.7-0.3,1-1,1c-3.3,0-6.6,0-9.9,0
		c-0.7,0-1-0.3-1-1c0-1.8,0-3.7,0-5.5c0-0.7,0.3-0.9,0.9-0.9C183.3,31.7,185,31.7,186.7,31.7z"/>
	<path class="st0" d="M159.6,39c-1.6,0-3.2,0-4.8,0c-0.8,0-1.1-0.2-1.1-1c0-1.8,0-3.6,0-5.3c0-0.7,0.3-1,1-1c3.3,0,6.5,0,9.8,0
		c0.8,0,1.1,0.3,1.1,1.1c0,1.7,0,3.5,0,5.2c0,0.8-0.3,1.1-1.1,1C162.8,39,161.2,39,159.6,39z"/>
	<path class="st0" d="M52.1,42.5c0,3.4-2.8,6.2-6.2,6.2c-3.4,0-6.2-2.8-6.1-6.3c0-3.4,2.8-6.1,6.2-6.1
		C49.3,36.3,52.1,39.1,52.1,42.5z"/>
	<path class="st0" d="M67,42.6c0,3.4-2.8,6.2-6.3,6.1c-3.4,0-6.2-2.9-6.1-6.3c0-3.3,2.8-6.1,6.2-6.1C64.2,36.3,67,39.1,67,42.6z"/>
	<path class="st0" d="M52.1,57.4c0,3.4-2.8,6.2-6.2,6.2c-3.4,0-6.2-2.8-6.2-6.2c0-3.4,2.8-6.1,6.2-6.2C49.2,51.2,52,54,52.1,57.4z"
		/>
	<path class="st0" d="M67,57.4c0,3.4-2.8,6.2-6.2,6.2c-3.4,0-6.2-2.8-6.2-6.2c0-3.4,2.8-6.1,6.2-6.2C64.2,51.2,67,54,67,57.4z"/>
</g>
</svg>
